<?xml version="1.0" encoding="utf-8"?>

<!DOCTYPE svg PUBLIC "-//W3C//DTD SVG 1.1//EN" "http://www.w3.org/Graphics/SVG/1.1/DTD/svg11.dtd">
<!-- Uploaded to: SVG Repo, www.svgrepo.com, Generator: SVG Repo Mixer Tools -->
<svg height="800px" width="800px" version="1.1" id="_x32_" xmlns="http://www.w3.org/2000/svg" xmlns:xlink="http://www.w3.org/1999/xlink" 
	 viewBox="0 0 512 512"  xml:space="preserve">
<style type="text/css">
	.st0{fill:#000000;}
</style>
<g>
	<path class="st0" d="M492.884,227.306c-5.432-50.985-26.552-106.932-64.836-151.179c-19.152-22.093-42.68-41.176-70.617-54.704
		C329.511,7.886,297.213-0.011,261.097,0c-1.666,0-3.374,0.02-5.108,0.062C254.297,0.02,252.6,0,250.902,0
		c-36.121-0.011-68.413,7.886-96.334,21.424c-41.934,20.316-73.829,53.032-96.141,89.811
		c-22.317,36.83-35.258,77.809-39.311,116.072c-1.066,10.1-1.562,20.274-1.562,30.448c0.02,40.654,7.87,81.226,19.793,116.448
		c12.024,35.252,27.786,65.054,45.59,84.817c3.699,4.053,6.785,7.072,10.044,9.578c1.65,1.244,3.348,2.393,5.51,3.416
		c2.157,0.993,4.878,2.016,8.728,2.048c3.05,0.042,6.894-0.909,9.923-2.967c2.282-1.515,4.006-3.446,5.149-5.233
		c1.724-2.716,2.356-5.024,2.742-6.904c0.366-1.88,0.438-3.416,0.444-4.795c-0.026-2.225-0.25-4.094-0.522-5.807
		c6.674,5.818,14.253,12.117,22.739,18.499c14.712,11.051,31.775,22.186,50.128,30.688C216.176,506.025,235.892,511.979,256,512
		c20.108-0.021,39.824-5.975,58.176-14.457c27.519-12.765,52.197-31.41,70.241-46.869c0.919-0.784,1.744-1.536,2.627-2.298
		c-0.272,1.703-0.496,3.583-0.522,5.797c0.089,2.444,0.037,5.39,2.199,9.966c1.107,2.225,3.092,4.941,6.158,6.966
		c3.035,2.058,6.863,2.998,9.897,2.957c3.85-0.042,6.571-1.055,8.727-2.048c3.223-1.546,5.505-3.311,7.939-5.4
		c2.402-2.089,4.852-4.554,7.614-7.594c17.81-19.762,33.572-49.554,45.595-84.817c11.924-35.223,19.774-75.794,19.794-116.448
		C494.446,247.581,493.944,237.396,492.884,227.306z M214.552,35.379c11.454-2.1,23.534-3.279,36.35-3.29
		c1.556,0,3.134,0.02,4.732,0.062H256h0.392c1.546-0.042,3.113-0.062,4.706-0.062c12.822,0.011,24.897,1.19,36.35,3.29V197.17
		h-82.896V35.379z M196.1,470.081c-20.103-10.946-38.925-25.007-53.194-37.27c-8.189-7.03-14.88-13.349-19.637-18.039v-13.37
		c15.407,7.792,33.963,13.015,55.424,16.379c5.609,0.877,11.422,1.618,17.408,2.256V470.081z M196.1,396.347
		c-12.284-1.4-23.571-3.259-33.582-5.703c-12.305-2.998-22.74-6.812-31.002-11.323c-3.087-1.682-5.766-3.469-8.247-5.317v-23.346
		H196.1V396.347z M292.366,481.122c-12.394,4.596-24.761,7.375-36.366,7.354c-11.605,0.022-23.973-2.716-36.366-7.311v-59.311
		c11.616,0.648,23.701,1.003,36.366,1.003c12.712,0,24.714-0.438,36.366-1.086V481.122z M292.366,398.31
		c-11.496,0.669-23.597,1.024-36.366,1.024c-12.754,0-24.881-0.335-36.366-1.014v-47.662h72.733V398.31z M388.731,414.772
		c-8.461,8.336-23.09,21.905-41.171,35.212c-9.772,7.198-20.52,14.248-31.66,20.306v-50.4c14.023-1.493,27.247-3.499,39.15-6.392
		c12.519-3.05,23.748-6.998,33.682-12.033V414.772z M388.731,374.003c-2.481,1.848-5.16,3.635-8.246,5.317
		c-12.388,6.768-29.692,11.928-50.813,15.208c-4.398,0.69-9.056,1.254-13.772,1.786v-45.657h72.832V374.003z M388.737,262.727
		l-0.005,0.25v64.157H123.269v-64.157l-0.006-0.25c-0.099-3.029-0.194-5.839-0.194-8.357c-0.016-4.292,0.314-7.72,0.951-10.059
		c0.674-2.372,1.363-3.645,2.794-5.171l0.006-0.01c6.116-6.32,14.524-9.871,23.309-9.871h211.742c8.785,0,17.194,3.551,23.31,9.871
		c1.436,1.536,2.126,2.81,2.799,5.192c0.637,2.339,0.961,5.756,0.951,10.048C388.93,256.888,388.836,259.698,388.737,262.727z"/>
</g>
</svg>