<svg xmlns="http://www.w3.org/2000/svg" version="1.1" viewBox="-5.0 -10.0 110.0 135.0">
 <path d="m28.219 34.43-12.719 14.941 14.941-12.719c1.6719-1.5-0.73047-3.8906-2.2305-2.2305z"/>
 <path d="m20.031 56.129-10.031 12.262 12.262-10.031c1.7305-1.5117-0.71875-3.9492-2.2305-2.2305z"/>
 <path d="m38.34 48.691-13.102 15.328 15.328-13.102c1.6602-1.5-0.73047-3.8906-2.2305-2.2305z"/>
 <path d="m47.121 57.98c1.7109-1.5117-0.73047-3.9297-2.2305-2.2305l-10.781 13.012z"/>
 <path d="m62.609 63.93c1.6289-1.5-0.73047-3.8516-2.2305-2.2305l-15.469 17.691 17.691-15.469z"/>
 <path d="m72.398 65.379-21.07 23.289 23.289-21.07c1.5781-1.5-0.73047-3.8008-2.2305-2.2305z"/>
 <path d="m45.371 68.441-14.949 17.18 17.18-14.949c1.6406-1.5-0.73047-3.8594-2.2305-2.2305z"/>
 <path d="m74.711 56.371 12.5-16.121c-0.48828-1.4883-1.0703-3.0117-1.7305-4.5391l-15.59 20.102c1.6406 0.26172 3.2617 0.44141 4.8281 0.55859z"/>
 <path d="m66.41 55.16 17.57-22.641c-6.6797-12.961-16.441-17.719-25.531-19.789l-17.559 22.641c4.9492 9.6406 12.5 16.852 25.52 19.789zm-12.75-30.012 3.7305 2.8906 2.4883-3.1992c1.0508-1.3281 3.8984 0.12891 2.4883 1.9297l-2.4883 3.1992 2.2812 1.7617 2.4492-3.1484c1.2109-1.6016 3.7891 0.21875 2.4883 1.9219l-2.4492 3.1602 2.3008 1.7891 2.4883-3.1992c0.98828-1.2617 4.0312-0.03125 2.4883 1.9297l-2.4883 3.1992 3.6992 2.8594c2.1406 1.6797-0.41016 3.6797-1.4414 2.8789l-4.1914-3.25-2.3906 3.1016c-1.1719 1.4805-3.8281-0.21875-2.4883-1.9297l2.3906-3.1016-2.3008-1.7891-2.4414 3.1406c-1.2695 1.6094-3.7695-0.26953-2.4883-1.9297l2.4414-3.1406-2.2812-1.7617-2.3906 3.1016c-1.2188 1.5508-3.8008-0.26172-2.4883-1.9297l2.3906-3.1016-3.7305-2.8906c-1.5781-1.2383 0.23047-3.8008 1.9297-2.4883z"/>
 <path d="m46.301 11.328c-0.46875-0.011719-10.781 0.62109-11.32 1.3203-0.39062 0.51172 0.16016 6.3281 1.5312 11.301z"/>
 <path d="m89.879 55.23c0.39844-0.5-0.16016-6.3203-1.5312-11.289l-9.7891 12.609c4.9102 0.089844 10.879-0.76172 11.32-1.3203z"/>
 <path d="m39.379 32.16 15.59-20.102c-1.6406-0.25-3.2617-0.44141-4.8203-0.55859l-12.512 16.121c0.5 1.4883 1.0781 3.0117 1.7305 4.5391z"/>
<text x="0.0" y="117.5" font-size="5.0" font-weight="bold" font-family="Arbeit Regular, Helvetica, Arial-Unicode, Arial, Sans-serif" fill="#000000">Created by Shodiq</text><text x="0.0" y="122.5" font-size="5.0" font-weight="bold" font-family="Arbeit Regular, Helvetica, Arial-Unicode, Arial, Sans-serif" fill="#000000">from Noun Project</text></svg>