<svg xmlns="http://www.w3.org/2000/svg" xmlns:xlink="http://www.w3.org/1999/xlink" version="1.1" x="0px" y="0px" viewBox="0 0 95 118.75" enable-background="new 0 0 95 95" xml:space="preserve"><g><path d="M4.713,73.105c0.418,7.036,2.796,9.893,9.649,11.577c0.584,0.15,1.176,0.29,1.771,0.383   c3.728,0.601,7.467,0.793,11.429,0.418c-7.121-8.575-14.071-16.956-21.056-25.372C5.393,62.457,4.481,69.14,4.713,73.105z"/><path d="M90.116,19.577c-0.583-4.447-2.917-7.496-7.243-8.546c-3.489-0.851-7.109-1.208-10.691-1.637   c-1.472-0.174-2.987,0.035-4.764,0.075C74.6,18.125,81.532,26.486,88.569,34.96C90.038,31.517,90.688,24.03,90.116,19.577z"/><path d="M72.135,27.119c-4.313-5.202-8.613-10.422-12.979-15.578c-0.407-0.476-1.312-0.94-1.864-0.824   c-11.321,2.386-21.754,6.662-30.527,14.472C19.022,32.077,13.695,40.6,9.771,50.075c-0.209,0.515-0.087,1.446,0.261,1.873   c8.691,10.563,17.436,21.093,26.208,31.59c0.331,0.39,1.144,0.662,1.655,0.569c1.829-0.331,3.643-0.789,5.44-1.286   c8.752-2.447,16.884-6.2,23.871-12.073c8.276-6.953,13.932-15.81,18.152-25.671c0.465-1.085,0.244-1.783-0.468-2.625   C80.615,37.366,76.385,32.234,72.135,27.119z M68.928,36.82l-2.375-2.856l-3.855,3.193l2.381,2.862l-2.503,2.076l-2.374-2.862   l-3.855,3.202l2.381,2.859l-2.506,2.076l-2.374-2.862l-3.853,3.193l2.375,2.862l-2.506,2.078l-2.375-2.862l-3.849,3.196   l2.372,2.862l-2.5,2.076l-2.375-2.862l-3.849,3.198l2.369,2.863l-2.497,2.072l-2.377-2.862l-3.852,3.199l2.369,2.862l-2.497,2.078   l-6.961-8.39l2.502-2.072l2.377,2.856l3.853-3.199l-2.378-2.856l2.505-2.085l2.375,2.866l3.844-3.193l-2.369-2.862l2.502-2.076   l2.375,2.856l3.849-3.193l-2.375-2.862l2.508-2.078l2.372,2.862l3.848-3.193L49.26,38.98l2.502-2.079l2.372,2.862l3.855-3.193   l-2.375-2.862l2.502-2.079l2.375,2.862l3.85-3.199l-2.375-2.862l2.503-2.073l6.961,8.384L68.928,36.82z"/></g><text x="0" y="110" fill="#000000" font-size="5px" font-weight="bold" font-family="'Helvetica Neue', Helvetica, Arial-Unicode, Arial, Sans-serif">Created by Lilit Kalachyan</text><text x="0" y="115" fill="#000000" font-size="5px" font-weight="bold" font-family="'Helvetica Neue', Helvetica, Arial-Unicode, Arial, Sans-serif">from the Noun Project</text></svg>