<svg xmlns="http://www.w3.org/2000/svg">
  <symbol id="icon-football" viewBox="0 0 95 118.75">
    <g><path d="M4.713,73.105c0.418,7.036,2.796,9.893,9.649,11.577c0.584,0.15,1.176,0.29,1.771,0.383   c3.728,0.601,7.467,0.793,11.429,0.418c-7.121-8.575-14.071-16.956-21.056-25.372C5.393,62.457,4.481,69.14,4.713,73.105z"/><path d="M90.116,19.577c-0.583-4.447-2.917-7.496-7.243-8.546c-3.489-0.851-7.109-1.208-10.691-1.637   c-1.472-0.174-2.987,0.035-4.764,0.075C74.6,18.125,81.532,26.486,88.569,34.96C90.038,31.517,90.688,24.03,90.116,19.577z"/><path d="M72.135,27.119c-4.313-5.202-8.613-10.422-12.979-15.578c-0.407-0.476-1.312-0.94-1.864-0.824   c-11.321,2.386-21.754,6.662-30.527,14.472C19.022,32.077,13.695,40.6,9.771,50.075c-0.209,0.515-0.087,1.446,0.261,1.873   c8.691,10.563,17.436,21.093,26.208,31.59c0.331,0.39,1.144,0.662,1.655,0.569c1.829-0.331,3.643-0.789,5.44-1.286   c8.752-2.447,16.884-6.2,23.871-12.073c8.276-6.953,13.932-15.81,18.152-25.671c0.465-1.085,0.244-1.783-0.468-2.625   C80.615,37.366,76.385,32.234,72.135,27.119z M68.928,36.82l-2.375-2.856l-3.855,3.193l2.381,2.862l-2.503,2.076l-2.374-2.862   l-3.855,3.202l2.381,2.859l-2.506,2.076l-2.374-2.862l-3.853,3.193l2.375,2.862l-2.506,2.078l-2.375-2.862l-3.849,3.196   l2.372,2.862l-2.5,2.076l-2.375-2.862l-3.849,3.198l2.369,2.863l-2.497,2.072l-2.377-2.862l-3.852,3.199l2.369,2.862l-2.497,2.078   l-6.961-8.39l2.502-2.072l2.377,2.856l3.853-3.199l-2.378-2.856l2.505-2.085l2.375,2.866l3.844-3.193l-2.369-2.862l2.502-2.076   l2.375,2.856l3.849-3.193l-2.375-2.862l2.508-2.078l2.372,2.862l3.848-3.193L49.26,38.98l2.502-2.079l2.372,2.862l3.855-3.193   l-2.375-2.862l2.502-2.079l2.375,2.862l3.85-3.199l-2.375-2.862l2.503-2.073l6.961,8.384L68.928,36.82z"/></g>
  </symbol>

  <symbol id="icon-player" viewBox="0 0 100 125">
    <path fill-rule="evenodd" clip-rule="evenodd" d="M33.4891 12.8791C37.0412 8.61083 42.2111 5.78588 47.7824 5.07039C48.9015 4.92236 52.0278 5.02104 53.2929 5.24309C59.74 6.341 65.3843 10.2885 68.7052 16.0124C71.7707 21.3046 72.6708 27.7563 71.1503 33.5666C70.8218 34.8002 70.761 35.269 70.7002 37.144C70.6272 39.2042 70.615 39.3399 70.2744 40.043C69.873 40.8695 68.7417 42.0661 67.4888 43.0037C66.7589 43.5464 66.6738 43.6451 66.6251 44.1016C66.3696 46.4084 66.2723 46.9389 66.029 47.7037C65.8709 48.1725 65.5911 48.8386 65.4087 49.1963C65.2384 49.5541 65.0924 49.8872 65.0924 49.9365C65.0924 49.9982 65.5181 50.1956 66.0412 50.3806C66.5764 50.578 67.3793 50.9357 67.8415 51.1824L68.6809 51.6265L73.9116 51.7129C78.5949 51.7869 79.2761 51.8239 80.3588 52.0583C83.6797 52.7615 86.7208 54.2294 88.9955 56.1909C92.1704 58.9295 94.3114 62.4576 94.8953 65.9117C94.9804 66.4051 95.0169 68.2555 94.9926 71.0064C94.9561 75.1883 94.9439 75.3364 94.6885 75.8298C94.3479 76.4713 93.8005 76.9401 93.2166 77.1004C92.9733 77.1744 92.1096 77.2855 91.3068 77.3595C85.9909 77.8406 80.8332 80.2091 76.4053 84.1936L75.493 85.0078L75.4322 89.1157L75.3713 93.2113L75.0429 93.7911C74.7874 94.2105 74.5442 94.4449 74.0697 94.6793L73.4372 95H70.1528C67.1968 95 66.8076 94.9753 66.3575 94.7656C64.8004 94.0501 64.7883 91.5089 66.3453 90.7564C66.6859 90.596 67.1725 90.559 68.839 90.559H70.8948L70.9678 86.6362C71.053 81.8991 71.2354 80.3818 72.0504 77.4952C73.3155 72.9802 76.1134 68.3665 79.86 64.5917C81.5266 62.9017 82.5605 62.0381 84.5312 60.6442C85.2732 60.1014 85.8936 59.6326 85.8936 59.5956C85.8936 59.4599 84.1662 58.362 83.2904 57.9426C82.816 57.7082 81.9523 57.3505 81.3684 57.1531C79.337 56.4253 78.9842 56.3882 73.2182 56.3882H67.951L67.2212 56.0675C65.9925 55.5494 64.3747 54.9079 64.2652 54.9079C64.2044 54.9079 64.0706 55.389 63.9489 55.9812C63.7056 57.2641 63.2799 58.2016 62.3432 59.5463C60.3361 62.3836 57.3923 65.3072 54.2052 67.6264C50.9938 69.9702 49.8138 70.2539 47.977 69.1437C46.797 68.4159 44.571 66.7505 43.2085 65.5662C40.6783 63.3704 37.7345 59.9657 36.7492 58.103C36.36 57.3628 35.8977 55.7468 35.8977 55.1423V54.7846L35.0584 55.093C34.5961 55.2657 33.7933 55.6111 33.2702 55.8701L32.3092 56.3266L26.5311 56.4006C21.0571 56.4623 20.7043 56.4869 19.8041 56.746C18.7215 57.0544 17.3348 57.5972 16.3981 58.0659C15.6196 58.473 14.1233 59.4722 14.1233 59.5956C14.1233 59.645 14.8289 60.2001 15.7047 60.8292C18.2836 62.7043 20.9354 65.2332 22.9061 67.7374C25.7039 71.2778 27.6502 75.4844 28.4774 79.8144C28.9396 82.1459 29.0856 84.1196 29.0856 87.6724V90.559H31.1657C33.55 90.559 33.8906 90.6577 34.4015 91.4472C34.7299 91.9407 34.9002 92.8782 34.7542 93.4457C34.6448 93.8898 33.9636 94.6299 33.5013 94.8273C33.2094 94.963 32.3214 95 29.852 95C26.9568 95 26.5311 94.963 26.1053 94.7656C25.4849 94.4819 24.8767 93.7911 24.7186 93.1866C24.6334 92.9029 24.5848 91.1882 24.5848 88.9307V85.1559L23.7089 84.3293C22.4925 83.1944 20.3394 81.5661 18.9648 80.7396C15.5709 78.7041 12.3352 77.6432 8.58851 77.3471C6.76385 77.1991 6.3016 77.0511 5.70554 76.4096C5.01216 75.6818 5 75.5461 5 70.5993C5 66.3804 5.01216 65.9857 5.25545 65.0111C5.82718 62.7413 6.97064 60.5702 8.72232 58.4854C11.4958 55.1917 15.0722 53.0699 19.6095 52.046C20.6313 51.8116 21.3004 51.7746 25.9837 51.7129L31.2144 51.6389L32.37 51.0591C33.0026 50.7507 33.8419 50.3929 34.2312 50.2696C34.6083 50.1462 34.9245 50.0105 34.9245 49.9488C34.9245 49.8872 34.7421 49.4677 34.511 49.0113C33.9149 47.8147 33.5986 46.6675 33.4283 45.0268L33.2823 43.5958L32.0294 42.5842C30.8251 41.5974 30.0953 40.7708 29.6208 39.858C29.4384 39.5126 29.3776 39.0068 29.3167 37.2057C29.2559 35.491 29.1708 34.7755 28.9761 34.06C28.5747 32.6414 28.2463 30.4949 28.1611 28.7679C27.8935 23.1673 29.8885 17.209 33.4891 12.8791ZM47.9405 22.3408V16.0494V9.75808L47.5512 9.77041C47.3323 9.77041 46.8214 9.85677 46.4199 9.94312C46.0185 10.0418 45.6171 10.1158 45.5441 10.1158C45.4225 10.1282 45.386 11.4358 45.386 16.2345V22.3408H46.6632H47.9405ZM54.631 10.1652L53.9984 10.0295C53.6456 9.94312 53.0982 9.84443 52.782 9.80742L52.1981 9.72107V16.0371V22.3408H53.4145H54.631V16.2592V10.1652ZM40.5202 27.8304C40.5202 26.35 40.5689 25.6592 40.7027 25.2521C40.8608 24.7957 40.8851 23.7718 40.8608 18.529L40.8243 12.3486L39.9728 12.9901C38.732 13.9277 36.9195 15.8274 36.0437 17.1227C35.2773 18.2576 34.1582 20.3917 34.0122 20.9962L33.9271 21.3293L35.0219 21.3663C35.9099 21.4033 36.1896 21.465 36.4694 21.6747C37.8683 22.7232 37.771 24.7463 36.2626 25.5112C35.7882 25.7579 35.5328 25.7949 34.2433 25.7949H32.7593L32.6741 26.7448C32.5403 28.1141 32.6741 30.1125 32.9904 31.5928L33.2702 32.8881L33.4162 31.9999C33.5865 30.939 33.9149 30.4209 34.6083 30.1002C35.0462 29.9028 35.4355 29.8658 37.8197 29.8658H40.5202V27.8304ZM65.3843 19.6269C64.399 17.5174 62.769 15.3586 61.0659 13.8536C60.6159 13.4712 59.9955 12.9654 59.6914 12.7434L59.1318 12.3363V18.5537C59.1318 23.8088 59.1561 24.845 59.3143 25.2151C59.4481 25.5482 59.4967 26.165 59.4967 27.6947V29.7178L59.8373 29.7918C60.0198 29.8288 61.2119 29.8535 62.477 29.8411C64.6423 29.8165 64.8248 29.8288 65.3357 30.0878C65.6398 30.2359 66.0047 30.5319 66.1507 30.754C66.467 31.2351 66.6981 32.1603 66.5886 32.5797C66.5399 32.7894 66.5643 32.8511 66.6494 32.7648C66.8197 32.5921 67.1482 31.1858 67.2941 29.9028C67.428 28.8419 67.3793 26.4364 67.2212 26.0046C67.1482 25.8196 66.9535 25.7949 65.6641 25.7949C63.8638 25.7949 63.3285 25.5975 62.8298 24.734C62.55 24.2652 62.5135 24.0679 62.5622 23.4017C62.6473 21.9584 63.4015 21.3539 65.0924 21.3539C65.1591 21.3539 65.222 21.3543 65.2811 21.3546C65.6651 21.3569 65.8872 21.3581 65.966 21.2525C66.074 21.1078 65.913 20.7621 65.5312 19.9427L65.5306 19.9415C65.485 19.8435 65.4362 19.7388 65.3843 19.6269ZM55.227 28.8296C55.1784 27.6823 54.9351 27.1765 54.3755 27.0162C54.0227 26.9175 47.5148 26.9175 46.2618 27.0162C45.0332 27.1149 44.8994 27.2876 44.8994 28.7679V29.8658H50.0814H55.2635L55.227 28.8296ZM62.4162 40.2897V37.3538V34.4055L50.0085 34.4425L37.6007 34.4918V37.3414V40.191L38.4279 40.5611C42.8801 42.5842 48.8407 43.3367 54.412 42.5719C56.8449 42.2388 59.0223 41.6467 61.5404 40.6475L62.4162 40.2897ZM40.3377 46.248L39.3889 45.8903L39.1761 45.8114C38.3305 45.4978 38.0637 45.3989 38.0026 45.4719C37.9744 45.5056 37.99 45.5758 38.0126 45.6783L38.0127 45.6785C38.0171 45.6985 38.0218 45.7198 38.0265 45.7423C38.1481 46.2727 38.4644 47.1609 38.6834 47.5063C38.9753 47.9874 40.1674 49.3567 40.2891 49.3567C40.3621 49.3567 40.3864 48.7152 40.3742 47.8024L40.3377 46.248ZM60.2874 48.8263C61.1146 47.9381 61.6377 47.0252 61.8201 46.174C61.8931 45.8039 61.9296 45.4955 61.9053 45.4832C61.8931 45.4585 61.3822 45.6312 60.774 45.8409L59.6792 46.248L59.6549 47.8887L59.6184 49.5418L60.2874 48.8263ZM55.2148 52.2063C55.3 52.157 55.3243 51.3551 55.2757 49.6281C55.227 47.9381 55.154 47.1362 55.0689 47.1486C54.9959 47.1609 54.631 47.2102 54.266 47.2596C53.9011 47.3213 53.2807 47.3583 52.9036 47.3706L52.1981 47.3829V50.0969C52.1981 52.7121 52.2102 52.8108 52.4414 52.8108C52.7576 52.8108 55.0445 52.3174 55.2148 52.2063ZM47.9405 47.531L47.6121 47.457C47.4174 47.42 46.7119 47.3583 46.0307 47.3089L44.7777 47.2226V49.7021V52.1693L45.7266 52.416C46.2375 52.5641 46.9552 52.7121 47.308 52.7615L47.9405 52.8478V50.1832V47.531ZM49.9476 57.5602C47.2593 57.5602 46.0915 57.3998 44.0236 56.746C43.3667 56.5486 42.7584 56.3512 42.649 56.3142C42.4908 56.2525 42.4665 56.4006 42.4665 57.2888C42.4665 58.325 42.4787 58.3497 42.9288 58.9418C43.9019 60.1754 46.7362 62.6426 49.3151 64.493L50.045 65.0111L50.8478 64.4437C53.597 62.4699 57.3436 59.0282 57.4774 58.325C57.5626 57.9302 57.6477 56.2649 57.5869 56.2649C57.5626 56.2649 57.4288 56.3266 57.3071 56.3882C57.0152 56.5486 54.485 57.1778 53.2929 57.3875C52.7455 57.4861 51.4195 57.5602 49.9476 57.5602ZM19.6703 70.8831C17.6632 68.3789 14.245 65.1838 11.6661 63.4074C11.289 63.136 10.9363 62.9263 10.8998 62.9263C10.8268 62.9263 10.3889 63.8762 9.79279 65.2949C9.51301 65.9857 9.50085 66.0844 9.50085 69.3287V72.6471L10.3889 72.7211C15.2668 73.1776 18.9891 74.6826 23.3318 77.9763L23.8427 78.3587L23.6481 77.7666C23.1129 76.1629 21.0449 72.5854 19.6703 70.8831ZM90.5161 65.9733L89.8349 64.4437C89.4578 63.6048 89.105 62.9263 89.0563 62.9263C89.0077 62.9263 88.436 63.3334 87.7669 63.8269C82.3781 67.8607 78.6192 72.3881 76.5878 77.2485C76.3567 77.8159 76.162 78.297 76.162 78.3217C76.162 78.3464 76.3932 78.186 76.6851 77.9763C80.8332 74.8306 84.9448 73.1652 89.6402 72.7335L90.5161 72.6471V69.3041V65.9733ZM23.7697 62.0505C24.1711 61.2116 24.5847 61.0266 26.2269 60.9403C27.0298 60.8909 28.8909 60.8662 30.3628 60.8786C32.8322 60.8909 33.0755 60.9156 33.4648 61.15C34.8515 61.9765 34.9002 63.9379 33.5499 64.9495C33.2215 65.1962 33.039 65.2085 29.2316 65.2455C27.042 65.2702 25.1321 65.2455 24.9862 65.2085C24.6091 65.1222 24.0008 64.567 23.7697 64.1229C23.5143 63.6048 23.5143 62.6056 23.7697 62.0505ZM67.5374 60.9403C66.5521 61.0267 66.5156 61.039 66.0655 61.5324C65.0924 62.581 65.3478 64.4437 66.5521 65.0482C66.9292 65.2456 67.4036 65.2703 70.834 65.2703C73.2669 65.2703 74.8118 65.2209 75.0307 65.1346C75.7728 64.8508 76.4053 63.901 76.4053 63.0498C76.4053 62.359 76.0039 61.6311 75.42 61.2364L74.9091 60.891L71.7342 60.8786C69.9825 60.8663 68.097 60.891 67.5374 60.9403ZM44.3393 76.644C43.5851 75.5214 44.0108 73.9547 45.2516 73.2886C45.653 73.0789 45.9693 73.0542 48.8401 73.0419C51.8447 73.0419 52.0029 73.0542 52.453 73.3133C52.7084 73.4613 53.0734 73.7944 53.2558 74.0658L53.5964 74.5592L53.6329 83.7002C53.6573 88.7333 53.6329 93.0139 53.5964 93.2359C53.4991 93.7541 53.0247 94.3215 52.3922 94.6669C51.9421 94.9136 51.7231 94.9383 49.9471 94.9383C48.3657 94.9383 47.9278 94.9013 47.6359 94.7286C47.1006 94.4325 46.7843 94.1241 46.5289 93.643C46.3099 93.2359 46.2978 92.7672 46.2369 85.4396L46.1761 77.6679L45.872 77.6309C45.3733 77.5569 44.6191 77.0757 44.3393 76.644Z"/>
  </symbol>
</svg>
